<svg xmlns="http://www.w3.org/2000/svg" viewBox="0 0 512 512" width="100%" height="100%">
  <rect x="36" y="72" width="440" height="408" rx="80" fill="#F0CD65" />

  <rect x="36" y="48" width="440" height="408" rx="80" fill="#FFFFFF" />

  <path d="M 36 190 L 36 128 A 80 80 0 0 1 116 48 L 396 48 A 80 80 0 0 1 476 128 L 476 190 Z" fill="#FF837A" />

  <circle cx="140" cy="110" r="22" fill="#F0CD65" />
  <circle cx="372" cy="110" r="22" fill="#F0CD65" />

  <rect x="116" y="16" width="48" height="104" rx="24" fill="#52D1C1" />
  <rect x="348" y="16" width="48" height="104" rx="24" fill="#52D1C1" />

  <rect x="128" y="24" width="16" height="88" rx="8" fill="#8BE4D8" />
  <rect x="360" y="24" width="16" height="88" rx="8" fill="#8BE4D8" />

  <g transform="translate(0, 40)"> <circle cx="256" cy="256" r="96" fill="none" stroke="#4A4E69" stroke-width="36" stroke-linecap="round" />
      <path d="M 256 200 L 256 256 L 296 286" fill="none" stroke="#4A4E69" stroke-width="36" stroke-linecap="round" stroke-linejoin="round" />
  </g>

  <path d="M 410 260 Q 425 260 425 245 Q 425 260 440 260 Q 425 260 425 275 Q 425 260 410 260 Z" fill="#F0CD65" />
  <path d="M 80 340 Q 95 340 95 325 Q 95 340 110 340 Q 95 340 95 355 Q 95 340 80 340 Z" fill="#52D1C1" />
</svg>